#!OML:ASF I:\Actors\actors\Patient Classification 2\Patient 1\Session 1\actor1.ASF
:FULLY-SPECIFIED
:DEGREES
842
root -0.501208 18.6066 5.83726 -1.22304 4.44573 -2.79777
lowerback 8.75811 -0.0908952 -0.948375
upperback -2.3973 -0.167526 0.897002
thorax -7.4416 -0.0158992 1.50363
lowerneck -13.2927 -3.74432 -4.04762
upperneck 17.3052 -5.52297 6.29318
head 7.82253 -2.30524 2.1515
rclavicle 7.15004e-015 2.38542e-014
rhumerus -43.9921 -0.554809 -87.2488
rradius 53.2395
rwrist 14.6762
rhand -3.76426 -35.0875
rfingers 7.12502
rthumb 21.9803 -63.8586
lclavicle 7.15004e-015 2.38542e-014
lhumerus -43.0989 -9.74469 95.989
lradius 60.1191
lwrist -5.73876
lhand 6.54567 -26.3177
lfingers 7.12502
lthumb 31.8431 0.919625
rfemur 11.6681 3.6876 16.6317
rtibia -3.18055e-015
rfoot -20.3999 -12.9886
rtoes -10.1443
lfemur -5.61765 -4.76979 -11.5683
ltibia 25.7592
lfoot -20.6686 7.63657
ltoes -58.2037
843
root -0.505227 18.6048 5.88771 -1.19413 4.30629 -2.72665
lowerback 7.6615 -0.063183 -1.00784
upperback -2.54962 -0.129729 0.897703
thorax -6.97317 0.00230646 1.52591
lowerneck -13.5145 -3.72652 -4.1096
upperneck 17.9931 -5.49511 6.17149
head 8.08672 -2.29387 2.12375
rclavicle -6.90777e-015 -1.11319e-014
rhumerus -43.6794 -2.35741 -86.1966
rradius 49.3139
rwrist 14.8685
rhand -4.10391 -34.9716
rfingers 7.12502
rthumb 21.6542 -63.7807
lclavicle -6.90777e-015 -1.11319e-014
lhumerus -42.5258 -7.55445 95.2184
lradius 56.0461
lwrist -3.87385
lhand 3.84339 -27.5909
lfingers 7.12502
lthumb 29.2662 0.126739
rfemur 11.7951 3.82162 16.5935
rtibia 4.77083e-015
rfoot -20.4962 -12.9728
rtoes -10.5165
lfemur -5.31415 -4.84065 -11.6596
ltibia 25.5742
lfoot -20.8297 7.80601
ltoes -58.2
844
root -0.507176 18.6025 5.94065 -1.19015 4.17624 -2.63042
lowerback 6.56939 -0.0512462 -1.05219
upperback -2.68187 -0.111525 0.877339
thorax -6.48572 0.00946447 1.52136
lowerneck -13.6537 -3.68785 -3.99545
upperneck 18.4932 -5.42564 5.85276
head 8.26209 -2.27511 2.00619
rclavicle 1.47846e-015 2.18663e-015
rhumerus -43.3885 -4.32987 -84.9603
rradius 45.4496
rwrist 15.9541
rhand -4.37138 -35.0357
rfingers 7.12502
rthumb 21.3973 -63.8742
lclavicle 1.47846e-015 2.18663e-015
lhumerus -41.8189 -4.86755 94.2083
lradius 51.7102
lwrist -2.74329
lhand 1.44277 -28.4703
lfingers 7.12502
lthumb 26.9716 -0.375475
rfemur 11.9648 3.94952 16.5184
rtibia -3.18055e-015
rfoot -20.6265 -12.8841
rtoes -10.7443
lfemur -4.97161 -4.88579 -11.7874
ltibia 25.381
lfoot -21.0139 7.9768
ltoes -58.2512
845
root -0.509232 18.5993 5.99359 -1.21967 4.09088 -2.54202
lowerback 5.59674 -0.050646 -1.06574
upperback -2.83975 -0.106769 0.835877
thorax -6.09405 0.00922746 1.48072
lowerneck -13.6071 -3.67645 -3.88368
upperneck 18.7181 -5.39625 5.6014
head 8.31684 -2.27654 1.90823
rclavicle 1.37907e-015 -2.3059e-014
rhumerus -43.3436 -6.59047 -83.438
rradius 42.0248
rwrist 18.534
rhand -3.80231 -35.2821
rfingers 7.12502
rthumb 21.9438 -64.0575
lclavicle 1.37907e-015 -2.3059e-014
lhumerus -41.0531 -1.50827 92.8456
lradius 47.5457
lwrist -3.68437
lhand -0.169246 -27.281
lfingers 7.12502
lthumb 25.4283 1.04295
rfemur 12.1859 4.03495 16.4478
rtibia -6.36111e-015
rfoot -20.8296 -12.7011
rtoes -10.4886
lfemur -4.60437 -4.98247 -11.9085
ltibia 25.1842
lfoot -21.2421 8.14777
ltoes -58.3226
846
root -0.51475 18.5939 6.04389 -1.30636 4.09414 -2.46265
lowerback 4.80853 -0.0912665 -1.10601
upperback -3.01829 -0.160392 0.785919
thorax -5.8282 -0.0177817 1.45354
lowerneck -13.2315 -3.59899 -3.85412
upperneck 18.47 -5.30151 5.64044
head 8.16107 -2.23619 1.93195
rclavicle -4.47266e-015 7.15625e-015
rhumerus -43.6727 -9.01441 -81.6399
rradius 39.328
rwrist 22.6315
rhand -2.17589 -35.429
rfingers 7.12502
rthumb 23.5047 -64.013
lclavicle -4.47266e-015 7.15625e-015
lhumerus -40.3552 2.61059 90.9703
lradius 43.1127
lwrist -5.79767
lhand -1.34477 -26.1443
lfingers 7.12502
lthumb 24.3017 2.33525
rfemur 12.4834 4.03372 16.4015
rtibia 2.38542e-014
rfoot -21.0421 -12.5305
rtoes -10.1239
lfemur -4.20167 -5.25206 -12.0219
ltibia 24.9933
lfoot -21.5029 8.29923
ltoes -58.2667
847
root -0.523531 18.5859 6.09123 -1.4413 4.13518 -2.3447
lowerback 4.18008 -0.174536 -1.25374
upperback -3.18721 -0.278453 0.742645
thorax -5.64146 -0.0717653 1.49959
lowerneck -12.6906 -3.4242 -3.93049
upperneck 17.8748 -5.0953 5.97709
head 7.86622 -2.12915 2.08511
rclavicle -3.72721e-015 -1.98785e-015
rhumerus -44.3334 -11.0585 -79.8701
rradius 37.3187
rwrist 26.7105
rhand -0.794891 -35.5447
rfingers 7.12502
rthumb 24.8288 -63.9526
lclavicle -3.72721e-015 -1.98785e-015
lhumerus -39.9471 7.26515 88.5531
lradius 38.7575
lwrist -9.14133
lhand -1.99234 -25.2974
lfingers 7.12502
lthumb 23.6807 3.26396
rfemur 12.8371 3.99754 16.3321
rtibia -3.18055e-015
rfoot -21.223 -12.3757
rtoes -9.94149
lfemur -3.75763 -5.51237 -12.1649
ltibia 24.805
lfoot -21.7257 8.34581
ltoes -58.0767
